<mxfile host="app.diagrams.net" modified="2020-11-06T07:35:16.243Z" agent="5.0 (Windows NT 10.0; Win64; x64) AppleWebKit/537.36 (KHTML, like Gecko) Chrome/86.0.4240.183 Safari/537.36" etag="-zv1N0ez-wH6omAeiFKW" version="13.9.2" type="github">
  <diagram name="Page-1" id="97916047-d0de-89f5-080d-49f4d83e522f">
    <mxGraphModel dx="2214" dy="1194" grid="1" gridSize="10" guides="1" tooltips="1" connect="1" arrows="1" fold="1" page="1" pageScale="1.5" pageWidth="1169" pageHeight="827" background="#ffffff" math="0" shadow="0">
      <root>
        <mxCell id="0" />
        <mxCell id="1" parent="0" />
        <mxCell id="eczwLWgFRF-YEfwWttJ1-57" value="" style="edgeStyle=orthogonalEdgeStyle;rounded=0;orthogonalLoop=1;jettySize=auto;html=1;" edge="1" parent="1" source="eczwLWgFRF-YEfwWttJ1-55" target="eczwLWgFRF-YEfwWttJ1-56">
          <mxGeometry relative="1" as="geometry" />
        </mxCell>
        <mxCell id="eczwLWgFRF-YEfwWttJ1-55" value="" style="rounded=1;whiteSpace=wrap;html=1;" vertex="1" parent="1">
          <mxGeometry x="780" y="250" width="120" height="60" as="geometry" />
        </mxCell>
        <mxCell id="eczwLWgFRF-YEfwWttJ1-56" value="" style="whiteSpace=wrap;html=1;rounded=1;" vertex="1" parent="1">
          <mxGeometry x="980" y="250" width="120" height="60" as="geometry" />
        </mxCell>
      </root>
    </mxGraphModel>
  </diagram>
</mxfile>
